<svg width="16" height="16" viewBox="0 0 16 16" fill="none" xmlns="http://www.w3.org/2000/svg">
<path d="M8 3.65625C5.9625 3.65625 4.11875 4.01875 2.80844 4.58437C2.15375 4.86875 1.63437 5.20313 1.29062 5.55625C0.946875 5.90938 0.78125 6.2625 0.78125 6.625C0.78125 6.9875 0.946875 7.34062 1.29062 7.69375C1.63437 8.04687 2.15375 8.38125 2.80844 8.66562C4.11875 9.23125 5.9625 9.59375 8 9.59375C10.0375 9.59375 11.8813 9.23125 13.1906 8.66562C13.8469 8.38125 14.3656 8.04687 14.7094 7.69375C15.0531 7.34062 15.2188 6.9875 15.2188 6.625C15.2188 6.2625 15.0531 5.90938 14.7094 5.55625C14.3656 5.20313 13.8469 4.86875 13.1906 4.58437C11.8813 4.01875 10.0375 3.65625 8 3.65625ZM0.78125 7.97188V9.54062C0.78125 9.7375 0.946875 10.0906 1.29062 10.4438C1.63437 10.7969 2.15375 11.1312 2.80844 11.4156C4.11875 11.9812 5.9625 12.3438 8 12.3438C10.0375 12.3438 11.8813 11.9812 13.1906 11.4156C13.8469 11.1312 14.3656 10.7969 14.7094 10.4438C15.0531 10.0906 15.2188 9.7375 15.2188 9.54062V7.97188C15.1844 8.0125 15.15 8.05 15.1125 8.0875C14.6969 8.5125 14.1187 8.87812 13.4156 9.18125C12.0094 9.79062 10.1031 10.1562 8 10.1562C5.89687 10.1562 3.99063 9.79062 2.585 9.18125C1.88219 8.87812 1.30344 8.5125 0.888125 8.0875C0.850938 8.05 0.815625 8.00938 0.78125 7.97188Z" fill="#6B9080"/>
</svg>
