<svg width="44" height="44" viewBox="0 0 44 44" fill="none" xmlns="http://www.w3.org/2000/svg">
<path d="M19.25 3.66667C22.1759 3.66647 25.0428 4.49003 27.5225 6.04309C30.0023 7.59615 31.9947 9.81597 33.2717 12.4485C34.5488 15.081 35.0589 18.0199 34.7437 20.9288C34.4284 23.8377 33.3006 26.5991 31.4893 28.897L38.1846 35.5923C38.5186 35.9381 38.7034 36.4012 38.6992 36.8819C38.695 37.3626 38.5022 37.8224 38.1623 38.1623C37.8224 38.5022 37.3626 38.6951 36.8819 38.6992C36.4012 38.7034 35.9381 38.5186 35.5923 38.1847L28.897 31.4893C26.9453 33.0274 24.6541 34.0765 22.2145 34.549C19.7749 35.0215 17.2577 34.9038 14.8729 34.2056C12.4881 33.5074 10.3048 32.2491 8.50524 30.5355C6.70566 28.8219 5.34196 26.7029 4.5279 24.3551C3.71385 22.0073 3.47306 19.4989 3.82561 17.0391C4.17816 14.5793 5.11384 12.2395 6.55458 10.2149C7.99531 8.19026 9.89933 6.53954 12.1078 5.40044C14.3162 4.26133 16.7651 3.66688 19.25 3.66667ZM19.25 7.33333C16.0895 7.33333 13.0584 8.58883 10.8236 10.8236C8.58881 13.0585 7.33331 16.0895 7.33331 19.25C7.33331 22.4105 8.58881 25.4415 10.8236 27.6764C13.0584 29.9112 16.0895 31.1667 19.25 31.1667C22.4105 31.1667 25.4415 29.9112 27.6763 27.6764C29.9111 25.4415 31.1666 22.4105 31.1666 19.25C31.1666 16.0895 29.9111 13.0585 27.6763 10.8236C25.4415 8.58883 22.4105 7.33333 19.25 7.33333ZM19.25 9.16667C21.9242 9.16667 24.489 10.229 26.38 12.12C28.271 14.011 29.3333 16.5757 29.3333 19.25C29.3333 21.9243 28.271 24.489 26.38 26.38C24.489 28.271 21.9242 29.3333 19.25 29.3333C16.5757 29.3333 14.011 28.271 12.12 26.38C10.229 24.489 9.16664 21.9243 9.16664 19.25C9.16664 16.5757 10.229 14.011 12.12 12.12C14.011 10.229 16.5757 9.16667 19.25 9.16667Z" fill="#6B9080"/>
</svg>
