<svg width="75" height="50" viewBox="0 0 75 50" fill="none" xmlns="http://www.w3.org/2000/svg">
<path d="M38.4414 11.4258C28.2804 11.4258 19.0856 12.8028 12.551 14.9513C9.28608 16.0315 6.69595 17.3017 4.98167 18.643C3.26738 19.9844 2.44141 21.3258 2.44141 22.7028C2.44141 24.0797 3.26738 25.4211 4.98167 26.7625C6.69595 28.1038 9.28608 29.374 12.551 30.4542C19.0856 32.6028 28.2804 33.9797 38.4414 33.9797C48.6024 33.9797 57.7972 32.6028 64.3271 30.4542C67.5998 29.374 70.1869 28.1038 71.9011 26.7625C73.6154 25.4211 74.4414 24.0797 74.4414 22.7028C74.4414 21.3258 73.6154 19.9844 71.9011 18.643C70.1869 17.3017 67.5998 16.0315 64.3271 14.9513C57.7972 12.8028 48.6024 11.4258 38.4414 11.4258ZM2.44141 27.8189V33.7779C2.44141 34.5258 3.26738 35.8671 4.98167 37.2085C6.69595 38.5499 9.28608 39.82 12.551 40.9002C19.0856 43.0488 28.2804 44.4258 38.4414 44.4258C48.6024 44.4258 57.7972 43.0488 64.3271 40.9002C67.5998 39.82 70.1869 38.5499 71.9011 37.2085C73.6154 35.8671 74.4414 34.5258 74.4414 33.7779V27.8189C74.27 27.9733 74.0985 28.1157 73.9115 28.2582C71.8388 29.8725 68.9557 31.2614 65.4492 32.4128C58.4362 34.7276 48.9297 36.1164 38.4414 36.1164C27.9531 36.1164 18.4466 34.7276 11.4367 32.4128C7.9318 31.2614 5.04556 29.8725 2.97439 28.2582C2.78894 28.1157 2.61283 27.9614 2.44141 27.8189Z" fill="#F5F5F5"/>
</svg>
