<svg width="41" height="38" viewBox="0 0 41 38" fill="none" xmlns="http://www.w3.org/2000/svg">
<path d="M29.125 1H11.4167C8.654 1 6.00447 2.09747 4.05097 4.05097C2.09747 6.00448 1 8.654 1 11.4167V26C1 27.3679 1.26944 28.7225 1.79292 29.9863C2.31641 31.2501 3.08369 32.3984 4.05097 33.3657C6.00447 35.3192 8.654 36.4167 11.4167 36.4167H29.125C30.4929 36.4167 31.8475 36.1472 33.1113 35.6237C34.3751 35.1003 35.5234 34.333 36.4907 33.3657C37.458 32.3984 38.2253 31.2501 38.7487 29.9863C39.2722 28.7225 39.5417 27.3679 39.5417 26V11.4167C39.5417 10.0487 39.2722 8.69419 38.7487 7.43038C38.2253 6.16657 37.458 5.01825 36.4907 4.05097C35.5234 3.08369 34.3751 2.31641 33.1113 1.79292C31.8475 1.26944 30.4929 1 29.125 1Z" stroke="#6B9080" stroke-width="1.5" stroke-linecap="round" stroke-linejoin="round"/>
<path d="M1.521 29.1251L7.25016 22.4584C7.99983 21.7139 8.98373 21.2512 10.0353 21.1487C11.0869 21.0462 12.1417 21.3101 13.021 21.8959C13.9003 22.4817 14.9551 22.7457 16.0067 22.6432C17.0583 22.5407 18.0422 22.078 18.7918 21.3334L23.646 16.4792C25.0408 15.0797 26.8874 14.2213 28.8565 14.0573C30.8255 13.8932 32.7888 14.4341 34.396 15.5834L39.5835 19.6042M11.9377 14.8959C12.3918 14.8959 12.8415 14.8065 13.2611 14.6327C13.6807 14.4589 14.0619 14.2041 14.3831 13.883C14.7042 13.5619 14.9589 13.1806 15.1327 12.761C15.3065 12.3414 15.396 11.8917 15.396 11.4376C15.396 10.9834 15.3065 10.5337 15.1327 10.1141C14.9589 9.69455 14.7042 9.31331 14.3831 8.99217C14.0619 8.67103 13.6807 8.4163 13.2611 8.2425C12.8415 8.0687 12.3918 7.97925 11.9377 7.97925C11.0205 7.97925 10.1408 8.34361 9.49225 8.99217C8.84369 9.64073 8.47933 10.5204 8.47933 11.4376C8.47933 12.3548 8.84369 13.2344 9.49225 13.883C10.1408 14.5316 11.0205 14.8959 11.9377 14.8959Z" stroke="#6B9080" stroke-width="1.5" stroke-linecap="round" stroke-linejoin="round"/>
</svg>
