<svg width="33" height="34" viewBox="0 0 33 34" fill="none" xmlns="http://www.w3.org/2000/svg">
<path d="M2.35714 31.3551H11.0597V20.4652C11.0597 19.9747 11.2428 19.5636 11.6089 19.2318C11.9735 18.8986 12.4253 18.732 12.9643 18.732H20.0357C20.5747 18.732 21.0273 18.8986 21.3934 19.2318C21.758 19.5636 21.9403 19.9747 21.9403 20.4652V31.3551H30.6429V12.7112C30.6429 12.491 30.5902 12.2908 30.4849 12.1106C30.3796 11.9304 30.2359 11.7731 30.0536 11.6387L17.3627 2.93451C17.1207 2.7429 16.8331 2.64709 16.5 2.64709C16.1669 2.64709 15.8801 2.7429 15.6396 2.93451L2.94643 11.6387C2.76571 11.776 2.62193 11.9333 2.51507 12.1106C2.40821 12.2879 2.35557 12.4881 2.35714 12.7112V31.3551ZM0 31.3551V12.7112C0 12.1621 0.135143 11.6423 0.405428 11.1518C0.675714 10.6613 1.04814 10.2574 1.52271 9.93991L14.2159 1.19282C14.8806 0.73094 15.6396 0.5 16.4929 0.5C17.3462 0.5 18.1099 0.73094 18.7841 1.19282L31.4773 9.93777C31.9534 10.2552 32.3259 10.6599 32.5946 11.1518C32.8649 11.6423 33 12.1621 33 12.7112V31.3551C33 31.9299 32.7651 32.4311 32.2952 32.8587C31.8254 33.2862 31.2746 33.5 30.6429 33.5H21.4877C20.9471 33.5 20.4946 33.3341 20.13 33.0024C19.7654 32.6692 19.5831 32.2574 19.5831 31.7669V20.8791H13.4169V31.7669C13.4169 32.2588 13.2346 32.6706 12.87 33.0024C12.5054 33.3341 12.0536 33.5 11.5146 33.5H2.35714C1.72543 33.5 1.17464 33.2862 0.704785 32.8587C0.234928 32.4311 0 31.9299 0 31.3551Z" fill="white"/>
</svg>
