<svg width="34" height="34" viewBox="0 0 34 34" fill="none" xmlns="http://www.w3.org/2000/svg">
<path d="M17.0033 4.16667C16.3472 4.16667 15.718 4.4564 15.254 4.97212C14.7901 5.48785 14.5295 6.18732 14.5295 6.91667C14.5295 7.64601 14.7901 8.34549 15.254 8.86121C15.718 9.37694 16.3472 9.66667 17.0033 9.66667C17.6594 9.66667 18.2886 9.37694 18.7526 8.86121C19.2165 8.34549 19.4771 7.64601 19.4771 6.91667C19.4771 6.18732 19.2165 5.48785 18.7526 4.97212C18.2886 4.4564 17.6594 4.16667 17.0033 4.16667ZM11.231 6.91667C11.231 6.07402 11.3803 5.23962 11.6704 4.46111C11.9605 3.68261 12.3857 2.97524 12.9217 2.3794C13.4577 1.78356 14.094 1.31091 14.7943 0.98844C15.4947 0.665972 16.2453 0.5 17.0033 0.5C17.7613 0.5 18.5119 0.665972 19.2123 0.98844C19.9126 1.31091 20.5489 1.78356 21.0849 2.3794C21.6209 2.97524 22.0461 3.68261 22.3362 4.46111C22.6263 5.23962 22.7756 6.07402 22.7756 6.91667C22.7756 8.61847 22.1674 10.2506 21.0849 11.4539C20.0024 12.6573 18.5342 13.3333 17.0033 13.3333C15.4724 13.3333 14.0042 12.6573 12.9217 11.4539C11.8392 10.2506 11.231 8.61847 11.231 6.91667ZM5.45874 9.66667C5.02134 9.66667 4.60185 9.85982 4.29256 10.2036C3.98327 10.5475 3.80951 11.0138 3.80951 11.5C3.80951 11.9862 3.98327 12.4525 4.29256 12.7964C4.60185 13.1402 5.02134 13.3333 5.45874 13.3333C5.89614 13.3333 6.31562 13.1402 6.62491 12.7964C6.9342 12.4525 7.10796 11.9862 7.10796 11.5C7.10796 11.0138 6.9342 10.5475 6.62491 10.2036C6.31562 9.85982 5.89614 9.66667 5.45874 9.66667ZM0.511068 11.5C0.511068 10.0413 1.03234 8.64236 1.96021 7.61091C2.88808 6.57946 4.14653 6 5.45874 6C6.77094 6 8.0294 6.57946 8.95727 7.61091C9.88514 8.64236 10.4064 10.0413 10.4064 11.5C10.4064 12.9587 9.88514 14.3576 8.95727 15.3891C8.0294 16.4205 6.77094 17 5.45874 17C4.14653 17 2.88808 16.4205 1.96021 15.3891C1.03234 14.3576 0.511068 12.9587 0.511068 11.5ZM26.8986 11.5C26.8986 11.0138 27.0724 10.5475 27.3817 10.2036C27.691 9.85982 28.1105 9.66667 28.5479 9.66667C28.9853 9.66667 29.4048 9.85982 29.714 10.2036C30.0233 10.5475 30.1971 11.0138 30.1971 11.5C30.1971 11.9862 30.0233 12.4525 29.714 12.7964C29.4048 13.1402 28.9853 13.3333 28.5479 13.3333C28.1105 13.3333 27.691 13.1402 27.3817 12.7964C27.0724 12.4525 26.8986 11.9862 26.8986 11.5ZM28.5479 6C27.2357 6 25.9772 6.57946 25.0493 7.61091C24.1215 8.64236 23.6002 10.0413 23.6002 11.5C23.6002 12.9587 24.1215 14.3576 25.0493 15.3891C25.9772 16.4205 27.2357 17 28.5479 17C29.8601 17 31.1185 16.4205 32.0464 15.3891C32.9743 14.3576 33.4955 12.9587 33.4955 11.5C33.4955 10.0413 32.9743 8.64236 32.0464 7.61091C31.1185 6.57946 29.8601 6 28.5479 6ZM10.4064 21.5833C10.4064 19.0533 12.2535 17 14.5295 17H19.4771C21.7531 17 23.6002 19.0533 23.6002 21.5833V26.1667C23.6002 28.1116 22.9052 29.9768 21.668 31.3521C20.4308 32.7274 18.7529 33.5 17.0033 33.5C15.2537 33.5 13.5757 32.7274 12.3386 31.3521C11.1014 29.9768 10.4064 28.1116 10.4064 26.1667V21.5833ZM14.5295 20.6667C14.3108 20.6667 14.101 20.7632 13.9464 20.9352C13.7917 21.1071 13.7049 21.3402 13.7049 21.5833V26.1667C13.7049 27.1391 14.0524 28.0718 14.6709 28.7594C15.2895 29.447 16.1285 29.8333 17.0033 29.8333C17.8781 29.8333 18.7171 29.447 19.3357 28.7594C19.9542 28.0718 20.3017 27.1391 20.3017 26.1667V21.5833C20.3017 21.3402 20.2149 21.1071 20.0602 20.9352C19.9056 20.7632 19.6958 20.6667 19.4771 20.6667H14.5295ZM7.10796 21.5833C7.10796 20.5237 7.28608 19.5117 7.61592 18.584L3.55553 19.794C2.4999 20.1086 1.59981 20.8762 1.05306 21.9281C0.506304 22.98 0.35763 24.2303 0.639708 25.404L1.27961 28.0623C1.50389 28.9927 1.89085 29.8648 2.41837 30.6289C2.9459 31.393 3.60366 32.034 4.35409 32.5155C5.10453 32.9969 5.93293 33.3094 6.79199 33.4349C7.65105 33.5604 8.52394 33.4965 9.3608 33.247L9.41687 33.2287C8.65599 32.221 8.06388 31.0698 7.6687 29.8297C6.93981 29.8338 6.23022 29.5695 5.65078 29.0779C5.07133 28.5864 4.65468 27.8953 4.4659 27.1127L3.82601 24.4543C3.76961 24.2195 3.79944 23.9694 3.90892 23.7589C4.01841 23.5485 4.19858 23.3951 4.40983 23.3323L7.10796 22.5257V21.5833ZM24.6425 33.2433L24.5897 33.2323C25.3418 32.2313 25.9388 31.0837 26.3379 29.8297C27.0662 29.833 27.7751 29.5683 28.3538 29.0768C28.9326 28.5853 29.3488 27.8947 29.5374 27.1127L30.174 24.4543C30.2304 24.2195 30.2006 23.9694 30.0911 23.7589C29.9816 23.5485 29.8014 23.3951 29.5902 23.3323L26.8986 22.5293V21.5833C26.8986 20.5237 26.7205 19.5153 26.394 18.584L30.4445 19.794C31.5001 20.1086 32.4002 20.8762 32.9469 21.9281C33.4937 22.98 33.6424 24.2303 33.3603 25.404L32.7204 28.0623C32.4961 28.9927 32.1092 29.8648 31.5816 30.6289C31.0541 31.393 30.3963 32.034 29.6459 32.5155C28.8955 32.9969 28.0671 33.3094 27.208 33.4349C26.349 33.5604 25.4761 33.4965 24.6392 33.247" fill="white"/>
</svg>
