<svg width="36" height="36" viewBox="0 0 36 36" fill="none" xmlns="http://www.w3.org/2000/svg">
<path d="M32.7632 18.8684V24.0789C32.7632 26.8428 31.6652 29.4934 29.7109 31.4477C27.7566 33.4021 25.1059 34.5 22.3421 34.5H11.9211C9.15722 34.5 6.50658 33.4021 4.55226 31.4477C2.59793 29.4934 1.5 26.8428 1.5 24.0789V13.6579C1.5 10.8941 2.59793 8.24342 4.55226 6.2891C6.50658 4.33477 9.15722 3.23684 11.9211 3.23684H17.1316M29.2895 11.9211C30.6714 11.9211 31.9967 11.3721 32.9739 10.3949C33.951 9.41776 34.5 8.09244 34.5 6.71053C34.5 5.32861 33.951 4.00329 32.9739 3.02613C31.9967 2.04896 30.6714 1.5 29.2895 1.5C27.9076 1.5 26.5822 2.04896 25.6051 3.02613C24.6279 4.00329 24.0789 5.32861 24.0789 6.71053C24.0789 8.09244 24.6279 9.41776 25.6051 10.3949C26.5822 11.3721 27.9076 11.9211 29.2895 11.9211Z" stroke="white" stroke-width="1.5" stroke-linecap="round" stroke-linejoin="round"/>
</svg>
