<svg width="34" height="34" viewBox="0 0 34 34" fill="none" xmlns="http://www.w3.org/2000/svg">
<path d="M14.9758 33.5C14.5229 33.5 14.1304 33.3601 13.7982 33.0802C13.4647 32.8003 13.2578 32.4513 13.1773 32.0333L12.6654 28.198C12.0439 28.0208 11.3717 27.7433 10.649 27.3657C9.92754 26.9868 9.31313 26.581 8.80578 26.1483L5.07848 27.659C4.66715 27.8301 4.24933 27.8484 3.82502 27.714C3.40071 27.5796 3.07372 27.3259 2.84405 26.9532L0.743912 23.545C0.51424 23.1722 0.446765 22.7823 0.541489 22.3753C0.636212 21.9683 0.861991 21.6347 1.21883 21.3743L4.47316 19.0827C4.41477 18.7502 4.36741 18.4086 4.33107 18.0578C4.29215 17.7058 4.27268 17.3642 4.27268 17.033C4.27268 16.725 4.29215 16.4011 4.33107 16.0613C4.36741 15.7216 4.41477 15.339 4.47316 14.9137L1.21883 12.622C0.861991 12.3617 0.6427 12.0225 0.560952 11.6045C0.479205 11.1865 0.552519 10.7905 0.780893 10.4165L2.84405 7.11651C3.07372 6.76573 3.40071 6.51762 3.82502 6.37217C4.24933 6.22673 4.66715 6.23956 5.07848 6.41067L8.7688 7.88467C9.35011 7.42878 9.97944 7.01751 10.6568 6.65084C11.3315 6.28417 11.9887 6.00062 12.6285 5.80017L13.1793 1.96484C13.2584 1.54684 13.4647 1.1979 13.7982 0.918008C14.1317 0.638119 14.5242 0.498786 14.9758 0.500008H19.0242C19.4771 0.500008 19.8696 0.639953 20.2018 0.919841C20.5353 1.19973 20.7422 1.54867 20.8227 1.96667L21.3346 5.83867C22.0807 6.08556 22.7398 6.36851 23.3121 6.68751C23.8843 7.00651 24.4741 7.40617 25.0813 7.88651L28.9585 6.41251C29.3711 6.2414 29.7896 6.22856 30.2139 6.37401C30.6382 6.51945 30.9646 6.76756 31.1929 7.11834L33.2561 10.4532C33.4858 10.8272 33.5532 11.2171 33.4585 11.6228C33.3638 12.0286 33.138 12.3629 32.7812 12.6257L29.3789 15.02C29.4853 15.3989 29.545 15.7466 29.558 16.0632C29.571 16.3797 29.5774 16.6914 29.5774 16.9982C29.5774 17.2829 29.5645 17.583 29.5385 17.8983C29.5139 18.2149 29.4568 18.5974 29.3672 19.046L32.6566 21.3743C33.0134 21.6347 33.2457 21.9683 33.3534 22.3753C33.4611 22.7823 33.4001 23.1722 33.1705 23.545L31.0956 26.9165C30.8672 27.2905 30.5344 27.5441 30.0971 27.6773C29.6598 27.8118 29.2355 27.7934 28.8242 27.6223L25.0813 26.1117C24.4754 26.592 23.8655 27.0033 23.2517 27.3455C22.638 27.6877 21.9989 27.9597 21.3346 28.1613L20.8207 32.0315C20.7416 32.4495 20.5353 32.7984 20.2018 33.0783C19.8683 33.3582 19.4758 33.4988 19.0242 33.5H14.9758ZM15.0536 31.6667H18.8607L19.5789 26.702C20.5599 26.4576 21.4423 26.1221 22.226 25.6955C23.0123 25.2689 23.8116 24.6847 24.6239 23.9428L29.4801 25.8917L31.4148 22.775L27.1542 19.761C27.3164 19.2391 27.4241 18.7588 27.4773 18.32C27.5292 17.8824 27.5552 17.4424 27.5552 17C27.5552 16.5356 27.5292 16.0956 27.4773 15.68C27.4254 15.2644 27.3177 14.8079 27.1542 14.3105L31.4888 11.225L29.5541 8.10834L24.587 10.07C23.9979 9.46012 23.2238 8.88873 22.2649 8.35584C21.3047 7.82417 20.3964 7.47156 19.54 7.29801L18.9464 2.33334H15.0653L14.458 7.26317C13.4771 7.45995 12.5753 7.77773 11.7526 8.21651C10.9312 8.65406 10.1137 9.25601 9.30016 10.0223L4.44591 8.10834L2.51122 11.225L6.73289 14.195C6.5707 14.6057 6.45716 15.0518 6.39228 15.5333C6.3274 16.0149 6.29496 16.516 6.29496 17.0367C6.29496 17.5011 6.3274 17.9625 6.39228 18.4208C6.45716 18.8792 6.55837 19.3253 6.69591 19.7592L2.51122 22.775L4.44591 25.8917L9.26318 23.9667C10.0275 24.6927 10.8203 25.2751 11.6416 25.7138C12.4643 26.1526 13.3908 26.4942 14.4211 26.7387L15.0536 31.6667ZM16.9474 21.5833C18.3047 21.5833 19.455 21.1391 20.3984 20.2505C21.3417 19.3619 21.8134 18.2784 21.8134 17C21.8134 15.7216 21.3417 14.6381 20.3984 13.7495C19.455 12.8609 18.3047 12.4167 16.9474 12.4167C15.5824 12.4167 14.4301 12.8609 13.4907 13.7495C12.5512 14.6381 12.0815 15.7216 12.0815 17C12.0815 18.2784 12.5512 19.3619 13.4907 20.2505C14.4301 21.1391 15.5824 21.5833 16.9474 21.5833Z" fill="white"/>
</svg>
