<svg width="34" height="34" viewBox="0 0 34 34" fill="none" xmlns="http://www.w3.org/2000/svg">
<path d="M27.6735 5.90493C27.4281 5.68575 27.1367 5.51193 26.816 5.39343C26.4953 5.27492 26.1515 5.21404 25.8044 5.21429H16.34V0.5H13.7V5.21429H3.14C2.44015 5.21522 1.76926 5.46386 1.27439 5.90571C0.779526 6.34756 0.501047 6.94656 0.5 7.57143V14.6429C0.501047 15.2677 0.779526 15.8667 1.27439 16.3086C1.76926 16.7504 2.44015 16.9991 3.14 17H13.7V33.5H16.34V17H25.8057C26.1526 17.0001 26.4961 16.9391 26.8166 16.8206C27.1371 16.7021 27.4283 16.5284 27.6735 16.3094L33.5 11.1071L27.6735 5.90493ZM25.8044 14.6429H3.14V7.57143H25.807L29.767 11.1071L25.8044 14.6429Z" fill="white"/>
</svg>
