<svg width="34" height="34" viewBox="0 0 34 34" fill="none" xmlns="http://www.w3.org/2000/svg">
<path d="M2.33333 31.4375H10.9005V14.9375H2.33333V31.4375ZM12.7338 31.4375H21.2662V2.5625H12.7338V31.4375ZM23.0995 31.4375H31.6667V19.0625H23.0995V31.4375ZM0.5 30.167V16.208C0.5 15.2909 0.790278 14.5064 1.37083 13.8547C1.95139 13.2029 2.64806 12.8764 3.46083 12.875H10.9005V3.833C10.9005 2.91588 11.1908 2.13144 11.7713 1.47969C12.3519 0.827937 13.0486 0.501375 13.8613 0.5H20.1387C20.9527 0.5 21.6493 0.826562 22.2287 1.47969C22.808 2.13281 23.0983 2.91656 23.0995 3.83094V17H30.5392C31.3532 17 32.0498 17.3266 32.6292 17.9797C33.2085 18.6328 33.4988 19.4166 33.5 20.3309V30.1691C33.5 31.0848 33.2097 31.8686 32.6292 32.5203C32.0486 33.1721 31.3519 33.4986 30.5392 33.5H3.46083C2.64683 33.5 1.95017 33.1734 1.37083 32.5203C0.7915 31.8672 0.501222 31.0841 0.5 30.1711" fill="white"/>
</svg>
