<svg width="36" height="36" viewBox="0 0 36 36" fill="none" xmlns="http://www.w3.org/2000/svg">
<path d="M2.97119 16.35V21.3C2.97119 27.5221 2.97119 30.634 5.0434 32.5662C7.11562 34.4983 10.4485 34.5 17.116 34.5H18.8841C25.5516 34.5 28.8862 34.5 30.9567 32.5662C33.0271 30.6324 33.0289 27.5221 33.0289 21.3V16.35" stroke="white" stroke-width="1.5"/>
<path d="M13.5797 1.5H22.4202L23.573 12.2531C23.649 12.9787 23.5614 13.7111 23.3158 14.4032C23.0703 15.0953 22.6723 15.7319 22.1474 16.2719C21.6226 16.8119 20.9824 17.2434 20.2681 17.5387C19.5538 17.834 18.7812 17.9866 18 17.9866C17.2187 17.9866 16.4461 17.834 15.7318 17.5387C15.0175 17.2434 14.3774 16.8119 13.8525 16.2719C13.3276 15.7319 12.9296 15.0953 12.6841 14.4032C12.4386 13.7111 12.351 12.9787 12.4269 12.2531L13.5797 1.5Z" stroke="white" stroke-width="1.5"/>
<path d="M2.67058 7.02915C2.9853 5.56065 3.14266 4.8264 3.46269 4.23075C3.79614 3.61041 4.26566 3.06245 4.84075 2.62241C5.41584 2.18238 6.08366 1.86012 6.80086 1.67655C7.49042 1.5 8.29313 1.5 9.89857 1.5H13.5798L12.2979 13.4543C12.2302 14.1384 12.0137 14.8024 11.6615 15.4058C11.3093 16.0091 10.8288 16.539 10.2495 16.963C9.67024 17.387 9.00432 17.6963 8.29253 17.8718C7.58073 18.0473 6.83805 18.0854 6.10993 17.9837C5.38181 17.8821 4.68358 17.6428 4.05799 17.2806C3.43239 16.9184 2.8926 16.4409 2.47164 15.8772C2.05069 15.3135 1.75744 14.6756 1.60984 14.0025C1.46225 13.3294 1.46341 12.6353 1.61325 11.9626L2.67058 7.02915ZM33.3294 7.02915C33.0147 5.56065 32.8573 4.8264 32.5373 4.23075C32.2039 3.61041 31.7343 3.06245 31.1593 2.62241C30.5842 2.18238 29.9163 1.86012 29.1991 1.67655C28.5096 1.5 27.7069 1.5 26.1014 1.5H22.4202L23.7021 13.4543C23.7698 14.1384 23.9863 14.8024 24.3385 15.4058C24.6907 16.0091 25.1712 16.539 25.7505 16.963C26.3298 17.387 26.9957 17.6963 27.7075 17.8718C28.4193 18.0473 29.162 18.0854 29.8901 17.9837C30.6182 17.8821 31.3164 17.6428 31.942 17.2806C32.5676 16.9184 33.1074 16.4409 33.5284 15.8772C33.9493 15.3135 34.2426 14.6756 34.3902 14.0025C34.5378 13.3294 34.5366 12.6353 34.3867 11.9626L33.3294 7.02915Z" stroke="white" stroke-width="1.5"/>
<path d="M13.5796 33.675V28.725C13.5796 27.1822 13.5796 26.4117 13.935 25.8375C14.1677 25.4613 14.5025 25.1488 14.9057 24.9316C15.521 24.6 16.3467 24.6 17.9998 24.6C19.653 24.6 20.4787 24.6 21.094 24.9316C21.4972 25.1488 21.8319 25.4613 22.0647 25.8375C22.4201 26.4117 22.4201 27.1822 22.4201 28.725V33.675" stroke="white" stroke-width="1.5" stroke-linecap="round"/>
</svg>
