<svg width="34" height="34" viewBox="0 0 34 34" fill="none" xmlns="http://www.w3.org/2000/svg">
<path d="M12.5 5C5.87 5 0.5 10.37 0.5 17C0.5 23.63 5.87 29 12.5 29C19.13 29 24.5 23.63 24.5 17C24.5 10.37 19.13 5 12.5 5ZM12.5 26C7.535 26 3.5 21.965 3.5 17C3.5 12.035 7.535 8 12.5 8C17.465 8 21.5 12.035 21.5 17C21.5 21.965 17.465 26 12.5 26ZM17 14.75H14V22.25H11V14.75H8V12.5H17V14.75ZM29.375 4.625L33.5 6.5L29.375 8.375L27.5 12.5L25.625 8.375L21.5 6.5L25.625 4.625L27.5 0.5L29.375 4.625ZM29.375 25.625L33.5 27.5L29.375 29.375L27.5 33.5L25.625 29.375L21.5 27.5L25.625 25.625L27.5 21.5L29.375 25.625Z" fill="white"/>
</svg>
