<svg width="36" height="36" viewBox="0 0 36 36" fill="none" xmlns="http://www.w3.org/2000/svg">
<path d="M34.5 27.9H8.1C7.22479 27.9 6.38542 27.5523 5.76655 26.9334C5.14768 26.3146 4.8 25.4752 4.8 24.6V9.74996C4.8 8.87474 4.45232 8.03537 3.83345 7.4165C3.21458 6.79763 2.37521 6.44995 1.5 6.44995" stroke="white" stroke-width="2" stroke-linecap="round" stroke-linejoin="round"/>
<path d="M26.25 21.3V4.8C26.25 3.92479 25.9023 3.08542 25.2835 2.46655C24.6646 1.84768 23.8252 1.5 22.95 1.5H21.3C20.4248 1.5 19.5854 1.84768 18.9665 2.46655C18.3477 3.08542 18 3.92479 18 4.8V21.3" stroke="white" stroke-width="2" stroke-linecap="round" stroke-linejoin="round"/>
<path d="M31.1999 8.09998H13.0499C12.1386 8.09998 11.3999 8.83871 11.3999 9.74998V19.65C11.3999 20.5613 12.1386 21.3 13.0499 21.3H31.1999C32.1112 21.3 32.8499 20.5613 32.8499 19.65V9.74998C32.8499 8.83871 32.1112 8.09998 31.1999 8.09998Z" stroke="white" stroke-width="2" stroke-linecap="round" stroke-linejoin="round"/>
<path d="M27.9001 34.5C29.7226 34.5 31.2001 33.0226 31.2001 31.2C31.2001 29.3775 29.7226 27.9 27.9001 27.9C26.0776 27.9 24.6001 29.3775 24.6001 31.2C24.6001 33.0226 26.0776 34.5 27.9001 34.5Z" stroke="white" stroke-width="2" stroke-linecap="round" stroke-linejoin="round"/>
<path d="M13.05 34.5C14.8725 34.5 16.35 33.0226 16.35 31.2C16.35 29.3775 14.8725 27.9 13.05 27.9C11.2275 27.9 9.75 29.3775 9.75 31.2C9.75 33.0226 11.2275 34.5 13.05 34.5Z" stroke="white" stroke-width="2" stroke-linecap="round" stroke-linejoin="round"/>
</svg>
