<svg width="36" height="36" viewBox="0 0 36 36" fill="none" xmlns="http://www.w3.org/2000/svg">
<path d="M31.75 1.5H4.25C3.52065 1.5 2.82118 1.78973 2.30546 2.30546C1.78973 2.82118 1.5 3.52065 1.5 4.25V31.75C1.5 32.4793 1.78973 33.1788 2.30546 33.6945C2.82118 34.2103 3.52065 34.5 4.25 34.5H31.75C32.4793 34.5 33.1788 34.2103 33.6945 33.6945C34.2103 33.1788 34.5 32.4793 34.5 31.75V4.25C34.5 3.52065 34.2103 2.82118 33.6945 2.30546C33.1788 1.78973 32.4793 1.5 31.75 1.5Z" stroke="white" stroke-width="2"/>
<path d="M27.1666 17.0833C27.1666 20.6234 24.6888 23.6438 21.2083 24.8135C20.2091 25.1499 19.1283 25.3333 17.9999 25.3333C14.3333 25.3333 9.74992 27.1666 9.74992 27.1666L10.7876 24.9244C11.3037 23.8098 10.9746 22.5136 10.2651 21.5117C9.35759 20.2329 8.83325 18.7131 8.83325 17.0833C8.83325 12.5274 12.9372 8.83325 17.9999 8.83325C23.0627 8.83325 27.1666 12.5274 27.1666 17.0833Z" stroke="white" stroke-width="2" stroke-linejoin="round"/>
</svg>
