<svg width="33" height="33" viewBox="0 0 33 33" fill="none" xmlns="http://www.w3.org/2000/svg">
<path d="M9.63452 16.5C9.63452 16.2265 9.74317 15.9642 9.93657 15.7708C10.13 15.5774 10.3923 15.4688 10.6658 15.4688H15.4686V10.6659C15.4686 10.3924 15.5773 10.1301 15.7707 9.93669C15.9641 9.74329 16.2264 9.63464 16.4999 9.63464C16.7734 9.63464 17.0357 9.74329 17.2291 9.93669C17.4225 10.1301 17.5311 10.3924 17.5311 10.6659V15.4688H22.334C22.6075 15.4688 22.8698 15.5774 23.0632 15.7708C23.2566 15.9642 23.3653 16.2265 23.3653 16.5C23.3653 16.7735 23.2566 17.0358 23.0632 17.2292C22.8698 17.4226 22.6075 17.5313 22.334 17.5313H17.5311V22.3341C17.5311 22.6076 17.4225 22.87 17.2291 23.0633C17.0357 23.2567 16.7734 23.3654 16.4999 23.3654C16.2264 23.3654 15.9641 23.2567 15.7707 23.0633C15.5773 22.87 15.4686 22.6076 15.4686 22.3341V17.5313H10.6658C10.3923 17.5313 10.13 17.4226 9.93657 17.2292C9.74317 17.0358 9.63452 16.7735 9.63452 16.5Z" fill="#E6E6E6"/>
<path fill-rule="evenodd" clip-rule="evenodd" d="M10.0608 5.18238C14.3404 4.70792 18.6594 4.70792 22.939 5.18238C25.4512 5.46288 27.4793 7.4415 27.7735 9.96738C28.2823 14.3083 28.2823 18.6931 27.7735 23.034C27.4779 25.5599 25.4498 27.5371 22.939 27.819C18.6594 28.2935 14.3404 28.2935 10.0608 27.819C7.54866 27.5371 5.52054 25.5599 5.22629 23.034C4.71982 18.6932 4.71982 14.3082 5.22629 9.96738C5.52054 7.4415 7.55004 5.46288 10.0608 5.18238ZM22.7108 7.23113C18.5828 6.77357 14.417 6.77357 10.289 7.23113C9.52487 7.31591 8.8116 7.65583 8.26446 8.19599C7.71731 8.73615 7.36825 9.44499 7.27366 10.208C6.78462 14.3893 6.78462 18.6134 7.27366 22.7948C7.36854 23.5575 7.71773 24.266 8.26485 24.8059C8.81197 25.3458 9.52508 25.6855 10.289 25.7703C14.3824 26.2268 18.6174 26.2268 22.7108 25.7703C23.4745 25.6853 24.1873 25.3454 24.7341 24.8055C25.281 24.2657 25.63 23.5573 25.7248 22.7948C26.2138 18.6134 26.2138 14.3893 25.7248 10.208C25.6297 9.44569 25.2806 8.73764 24.7338 8.19806C24.1869 7.65848 23.4743 7.31882 22.7108 7.23388" fill="#E6E6E6"/>
</svg>
