<svg width="25" height="25" viewBox="0 0 25 25" fill="none" xmlns="http://www.w3.org/2000/svg">
<path d="M8.95842 23.4375L6.97925 20.1042L3.22925 19.2708L3.59383 15.4167L1.04175 12.5L3.59383 9.58333L3.22925 5.72917L6.97925 4.89583L8.95842 1.5625L12.5001 3.07292L16.0417 1.5625L18.0209 4.89583L21.7709 5.72917L21.4063 9.58333L23.9584 12.5L21.4063 15.4167L21.7709 19.2708L18.0209 20.1042L16.0417 23.4375L12.5001 21.9271L8.95842 23.4375ZM9.84383 20.7813L12.5001 19.6354L15.2084 20.7813L16.6667 18.2812L19.5313 17.6042L19.2709 14.6875L21.198 12.5L19.2709 10.2604L19.5313 7.34375L16.6667 6.71875L15.1563 4.21875L12.5001 5.36458L9.79175 4.21875L8.33342 6.71875L5.46883 7.34375L5.72925 10.2604L3.80217 12.5L5.72925 14.6875L5.46883 17.6563L8.33342 18.2812L9.84383 20.7813ZM11.4063 16.1979L17.2917 10.3125L15.8334 8.80208L11.4063 13.2292L9.16675 11.0417L7.70842 12.5L11.4063 16.1979Z" fill="#6B9080"/>
</svg>
